#!OML:ASF I:\Actors\actors\Patient Classification 2\Patient 1\Session 1\actor1.ASF
:FULLY-SPECIFIED
:DEGREES
825
root -0.609343 18.2983 8.28578 3.51101 -0.299491 1.06611
lowerback 8.49538 0.370744 -4.07425
upperback -5.5798 0.0731974 1.16696
thorax -10.8048 0.391494 3.54236
lowerneck -19.2689 -3.1558 -3.8551
upperneck 11.6506 -3.93797 4.3282
head 6.86373 -1.67662 1.58366
rclavicle -2.83268e-015 3.97569e-015
rhumerus -20.5798 -34.4913 1.95503
rradius 35.8357
rwrist 33.5714
rhand 0.814897 -35.9828
rfingers 7.12502
rthumb 26.3707 -64.1691
lclavicle -2.83268e-015 3.97569e-015
lhumerus -10.8731 68.6297 6.01649
lradius 27.905
lwrist -40.3663
lhand 10.2117 -19.2744
lfingers 7.12502
lthumb 35.3271 7.20468
rfemur -7.36318 0.257515 18.255
rtibia 26.4883
rfoot -24.6276 1.79693
rtoes 1.0085
lfemur -15.168 -5.47495 -20.3506
ltibia 36.494
lfoot -25.818 -0.779757
ltoes -52.8658
826
root -0.611317 18.2985 8.29386 3.58578 -0.268911 1.07371
lowerback 8.33084 0.359635 -4.12976
upperback -5.58479 0.0579143 1.16904
thorax -10.7106 0.386049 3.57738
lowerneck -19.2417 -3.19668 -3.92795
upperneck 11.6743 -3.98749 4.39936
head 6.87224 -1.69749 1.61303
rclavicle 1.40889e-014 7.95139e-016
rhumerus -20.6203 -34.5163 1.98904
rradius 35.8392
rwrist 33.6317
rhand 0.786185 -35.9245
rfingers 7.12502
rthumb 26.3432 -64.1149
lclavicle 1.40889e-014 7.95139e-016
lhumerus -10.8666 68.5242 5.99875
lradius 27.8793
lwrist -40.2448
lhand 10.1913 -19.2529
lfingers 7.12502
lthumb 35.3077 7.2307
rfemur -7.41155 0.308473 18.2642
rtibia 26.4954
rfoot -24.6741 1.7735
rtoes 1.32704
lfemur -15.2225 -5.47711 -20.3457
ltibia 36.4884
lfoot -25.8263 -0.804121
ltoes -52.8077
827
root -0.612473 18.2979 8.30128 3.6274 -0.262416 1.12286
lowerback 8.19465 0.360318 -4.23961
upperback -5.56563 0.050922 1.17196
thorax -10.608 0.387923 3.6426
lowerneck -19.3086 -3.20802 -3.96604
upperneck 11.7639 -3.99694 4.41943
head 6.91409 -1.7005 1.62391
rclavicle -1.75427e-014 -5.76476e-015
rhumerus -20.6544 -34.6018 2.03539
rradius 35.8229
rwrist 33.6715
rhand 0.694102 -35.7865
rfingers 7.12502
rthumb 26.255 -63.99
lclavicle -1.75427e-014 -5.76476e-015
lhumerus -10.9608 68.3111 5.93004
lradius 27.8762
lwrist -40.0708
lhand 10.1959 -19.1785
lfingers 7.12502
lthumb 35.3121 7.30407
rfemur -7.42902 0.343293 18.2181
rtibia 26.4958
rfoot -24.7081 1.77237
rtoes 1.64239
lfemur -15.2337 -5.5568 -20.3995
ltibia 36.4855
lfoot -25.8768 -0.760699
ltoes -52.7668
828
root -0.61297 18.2976 8.30661 3.63904 -0.276969 1.09704
lowerback 8.1265 0.37185 -4.2302
upperback -5.54105 0.070762 1.1693
thorax -10.5413 0.394486 3.63019
lowerneck -19.3968 -3.2082 -3.94027
upperneck 11.8629 -4.00101 4.39802
head 6.96011 -1.70139 1.61138
rclavicle -1.5207e-014 -5.76476e-015
rhumerus -20.7171 -34.6775 2.08295
rradius 35.7841
rwrist 33.7011
rhand 0.582195 -35.84
rfingers 7.12502
rthumb 26.1479 -64.0595
lclavicle -1.5207e-014 -5.76476e-015
lhumerus -10.9374 68.1186 5.94473
lradius 27.8705
lwrist -39.8923
lhand 10.3588 -19.0611
lfingers 7.12502
lthumb 35.4666 7.38473
rfemur -7.43021 0.341991 18.2459
rtibia 26.4967
rfoot -24.6926 1.78768
rtoes 1.61125
lfemur -15.2255 -5.60332 -20.3743
ltibia 36.4853
lfoot -25.9134 -0.701735
ltoes -52.7989
829
root -0.612938 18.2978 8.31157 3.63768 -0.285434 1.06338
lowerback 8.12021 0.386808 -4.16726
upperback -5.5463 0.0972335 1.14853
thorax -10.5449 0.401898 3.56754
lowerneck -19.4159 -3.22965 -3.9376
upperneck 11.9387 -4.03534 4.41234
head 6.98984 -1.71567 1.61131
rclavicle 5.76476e-015 1.39149e-015
rhumerus -20.8275 -34.6523 2.1432
rradius 35.785
rwrist 33.6834
rhand 0.622642 -36.1563
rfingers 7.12502
rthumb 26.1866 -64.37
lclavicle 5.76476e-015 1.39149e-015
lhumerus -10.7869 68.0939 6.0639
lradius 27.8522
lwrist -39.8979
lhand 10.5773 -19.0061
lfingers 7.12502
lthumb 35.6737 7.38993
rfemur -7.41698 0.285942 18.2755
rtibia 26.4982
rfoot -24.6516 1.81591
rtoes 1.33832
lfemur -15.2109 -5.56423 -20.3419
ltibia 36.4865
lfoot -25.8802 -0.666464
ltoes -52.8752
830
root -0.613902 18.2971 8.31687 3.63556 -0.279569 1.10188
lowerback 8.1322 0.38335 -4.19842
upperback -5.56644 0.084773 1.11757
thorax -10.5737 0.39786 3.55402
lowerneck -19.4292 -3.2352 -3.96453
upperneck 12.0454 -4.04888 4.46938
head 7.02943 -1.71731 1.63251
rclavicle -6.4605e-016 -5.56597e-015
rhumerus -20.9104 -34.5831 2.15424
rradius 35.8115
rwrist 33.6882
rhand 0.672603 -36.4006
rfingers 7.12502
rthumb 26.2345 -64.6072
lclavicle -6.4605e-016 -5.56597e-015
lhumerus -10.8122 67.941 6.00697
lradius 27.866
lwrist -39.8269
lhand 10.7192 -18.9676
lfingers 7.12502
lthumb 35.8081 7.39582
rfemur -7.39291 0.220281 18.2297
rtibia 26.4934
rfoot -24.6313 1.83504
rtoes 1.08375
lfemur -15.1931 -5.56435 -20.3891
ltibia 36.4913
lfoot -25.8757 -0.613692
ltoes -52.9818
831
root -0.616406 18.2962 8.32173 3.64909 -0.270669 1.1488
lowerback 8.09123 0.361946 -4.2933
upperback -5.56334 0.0445622 1.10739
thorax -10.5429 0.384097 3.6032
lowerneck -19.3625 -3.22987 -3.97411
upperneck 12.0264 -4.04881 4.51658
head 7.01354 -1.71441 1.65016
rclavicle 5.31749e-015 -4.17448e-015
rhumerus -20.9235 -34.5476 2.11598
rradius 35.8116
rwrist 33.6973
rhand 0.69161 -36.3414
rfingers 7.12502
rthumb 26.2526 -64.5453
lclavicle 5.31749e-015 -4.17448e-015
lhumerus -11.0133 67.6055 5.78809
lradius 27.9046
lwrist -39.5365
lhand 10.8525 -18.9011
lfingers 7.12502
lthumb 35.9344 7.43147
rfemur -7.37886 0.262632 18.1913
rtibia 26.4827
rfoot -24.6965 1.78123
rtoes 0.885152
lfemur -15.1912 -5.66767 -20.4395
ltibia 36.4974
lfoot -25.9258 -0.545453
ltoes -52.9508
832
root -0.618477 18.2953 8.32642 3.6496 -0.260339 1.17615
lowerback 8.04261 0.335904 -4.3719
upperback -5.5492 0.00221894 1.11201
thorax -10.4948 0.368076 3.65934
lowerneck -19.1993 -3.22595 -3.97095
upperneck 11.9093 -4.04929 4.53739
head 6.94882 -1.71566 1.65798
rclavicle 1.41386e-014 5.76476e-015
rhumerus -20.8953 -34.5318 2.05507
rradius 35.8137
rwrist 33.6294
rhand 1.01442 -36.5083
rfingers 7.12502
rthumb 26.5616 -64.6658
lclavicle 1.41386e-014 5.76476e-015
lhumerus -11.1694 67.5406 5.64334
lradius 27.9191
lwrist -39.4715
lhand 10.936 -18.8613
lfingers 7.12502
lthumb 36.0136 7.45188
rfemur -7.33951 0.384389 18.1794
rtibia 26.4665
rfoot -24.7951 1.72314
rtoes 1.01062
lfemur -15.1755 -5.74492 -20.4666
ltibia 36.504
lfoot -25.946 -0.53016
ltoes -52.8156
833
root -0.620067 18.2946 8.33219 3.63928 -0.277555 1.15919
lowerback 8.00998 0.325087 -4.36038
upperback -5.54549 -0.0103748 1.10159
thorax -10.4695 0.359933 3.64334
lowerneck -19.1123 -3.21359 -3.96496
upperneck 11.9259 -4.04054 4.55243
head 6.93969 -1.71095 1.66375
rclavicle 4.32357e-015 -3.57812e-015
rhumerus -20.921 -34.4378 1.99158
rradius 35.844
rwrist 33.4276
rhand 1.47175 -36.9791
rfingers 7.12502
rthumb 26.9993 -65.0696
lclavicle 4.32357e-015 -3.57812e-015
lhumerus -11.0675 67.9232 5.72308
lradius 27.8732
lwrist -39.8404
lhand 10.828 -18.8511
lfingers 7.12502
lthumb 35.9113 7.48718
rfemur -7.29195 0.435678 18.2042
rtibia 26.4438
rfoot -24.8124 1.78419
rtoes 1.49184
lfemur -15.1475 -5.73408 -20.4451
ltibia 36.5152
lfoot -25.9509 -0.530576
ltoes -52.7733
